<?xml version="1.0" encoding="UTF-8" standalone="no"?>
<!DOCTYPE svg PUBLIC "-//W3C//DTD SVG 1.1//EN" "http://www.w3.org/Graphics/SVG/1.1/DTD/svg11.dtd">
<svg width="100%" height="100%" viewBox="0 0 2787 917" version="1.1" xmlns="http://www.w3.org/2000/svg" xmlns:xlink="http://www.w3.org/1999/xlink" xml:space="preserve" xmlns:serif="http://www.serif.com/" style="fill-rule:evenodd;clip-rule:evenodd;stroke-linecap:round;stroke-linejoin:round;stroke-miterlimit:1.5;">
    <path d="M1865.37,669.684L164.912,676.436L3,677.958L3,465.099L1705.25,472.964C1703.04,458.87 1693.99,449.713 1695.45,438.538C1711.79,314.114 1823.73,333.933 1845.72,362.78C1851.26,370.056 1862.01,374.36 1864.1,375.459L1909.26,356.716C1920.75,342.748 1931.61,332.86 1946.33,321.442C1958.62,320.116 1970.43,322.813 1976.18,325.673C2018.94,346.938 2076.6,379.552 2141.16,399.738L2417.69,401.738L2511.61,73.185L2598.55,3L2676.61,85.116L2771.06,420.781L2783.27,703.585L2758.44,785.744C2753.49,808.93 2732.47,871.677 2732.47,871.677C2732.47,871.677 2707.21,899.666 2690.04,913.193L2640.64,864.349C2640.64,864.349 2639.25,859.162 2638.63,856.367C2621.51,779.761 2599.74,756.4 2599.74,756.4L2289.86,754.229C2298.26,790.718 2300.25,822.342 2283.13,832.917L2189.42,828.513C2170.15,805.099 2170.03,786.641 2179.54,778.352L2180.11,748.06L2136.88,747.622C2136.74,759.35 2127.13,784.548 2127.13,784.548L2032.85,781.205L1914,775.378C1895.12,763.586 1888.67,739.216 1897.86,741.143C1897.86,741.143 1868.33,738.21 1874.32,695.329C1875.75,685.032 1864.17,680.168 1865.37,669.684Z" style="fill:rgb(255,229,1);fill-opacity:0.49;stroke:black;stroke-width:6px;"/>
    <path id="square-for-scale" serif:id="square for scale" d="M1101.14,-142.768L1399.16,-142.584L1397.08,156.535L1099.81,156.535L1101.14,-142.768Z" style="fill:none;stroke:black;stroke-width:6px;"/>
</svg>
