<?xml version="1.0" encoding="UTF-8" standalone="no"?>
<!DOCTYPE svg PUBLIC "-//W3C//DTD SVG 1.1//EN" "http://www.w3.org/Graphics/SVG/1.1/DTD/svg11.dtd">
<svg width="100%" height="100%" viewBox="0 0 2787 917" version="1.1" xmlns="http://www.w3.org/2000/svg" xmlns:xlink="http://www.w3.org/1999/xlink" xml:space="preserve" xmlns:serif="http://www.serif.com/" style="fill-rule:evenodd;clip-rule:evenodd;stroke-linecap:round;stroke-linejoin:round;stroke-miterlimit:1.5;">
    <g transform="matrix(1,0,0,1,-130.33,-1068.42)">
        <g id="origincal" transform="matrix(0.618217,0,0,0.618217,-90.5334,97.6046)">
            <path d="M3374.6,2653.6L624.014,2664.52L362.112,2666.98L362.112,2322.67L3115.6,2335.39C3112.02,2312.6 3097.38,2297.78 3099.75,2279.71C3126.18,2078.44 3307.25,2110.5 3342.81,2157.16C3351.78,2168.93 3369.16,2175.89 3372.55,2177.67L3445.59,2147.36C3464.19,2124.76 3481.75,2108.77 3505.55,2090.3C3525.44,2088.15 3544.55,2092.52 3553.85,2097.14C3623.01,2131.54 3716.28,2184.29 3820.7,2216.95L4268,2220.18L4419.92,1688.73L4560.56,1575.2L4686.83,1708.03L4839.6,2250.98L4859.36,2708.44L4819.19,2841.33C4811.19,2878.84 4777.18,2980.34 4777.18,2980.34C4777.18,2980.34 4736.32,3025.61 4708.55,3047.49L4628.65,2968.48C4628.65,2968.48 4626.4,2960.09 4625.39,2955.57C4597.69,2831.66 4562.48,2793.87 4562.48,2793.87L4061.24,2790.36C4074.83,2849.38 4078.04,2900.53 4050.36,2917.64L3898.77,2910.51C3867.6,2872.64 3867.41,2842.78 3882.78,2829.38L3883.72,2780.38L3813.78,2779.67C3813.56,2798.64 3798.01,2839.4 3798.01,2839.4L3645.5,2833.99L3453.26,2824.57C3422.72,2805.49 3412.29,2766.07 3427.16,2769.19C3427.16,2769.19 3379.38,2764.44 3389.07,2695.08C3391.4,2678.43 3372.66,2670.56 3374.6,2653.6Z" style="fill:rgb(255,229,1);fill-opacity:0.49;stroke:black;stroke-width:9.71px;"/>
        </g>
    </g>
</svg>
