<?xml version="1.0" encoding="UTF-8" standalone="no"?>
<!DOCTYPE svg PUBLIC "-//W3C//DTD SVG 1.1//EN" "http://www.w3.org/Graphics/SVG/1.1/DTD/svg11.dtd">
<svg width="100%" height="100%" viewBox="0 0 2787 917" version="1.1" xmlns="http://www.w3.org/2000/svg" xmlns:xlink="http://www.w3.org/1999/xlink" xml:space="preserve" xmlns:serif="http://www.serif.com/" style="fill-rule:evenodd;clip-rule:evenodd;stroke-linecap:round;stroke-linejoin:round;stroke-miterlimit:1.5;">
    <path d="M2783.27,239.694L2783.27,449.337L1120.05,455.219C1120.05,455.219 1167.47,544.891 1086.98,576.991C1001.81,610.962 965.431,534.878 965.431,534.878L859.97,598.227L657.402,516.208L349.943,515.731L276.373,831.355L185.497,913.193L109.657,831.077L15.212,495.412L3,212.607L53.803,44.515C64.199,30.847 78.82,15.932 96.233,3C112.779,16.682 126.019,31.714 142.762,53.943L175.177,161.146L469.67,168.641L469.573,73.029L576.106,70.873L577.331,164.828L707.233,162.546C769.165,127.927 835.939,129.936 906.737,162.399C974.546,149.82 994.934,162.071 986.133,242.695L2783.27,239.694Z" style="fill:rgb(255,229,1);fill-opacity:0.17;stroke:black;stroke-width:6px;"/>
    <path id="square-for-scale" serif:id="square for scale" d="M1101.14,605.97L1399.16,606.154L1397.08,905.272L1099.81,905.272L1101.14,605.97Z" style="fill:none;stroke:black;stroke-width:6px;"/>
</svg>
