<svg xmlns="http://www.w3.org/2000/svg" xml:space="preserve" style="fill-rule:evenodd;clip-rule:evenodd;stroke-linecap:round;stroke-linejoin:round;stroke-miterlimit:1.5" viewBox="0 0 2787 917">
    <path d="m3374.6 2653.6-2750.586 10.92-261.902 2.46v-344.31l2753.488 12.72c-3.58-22.79-18.22-37.61-15.85-55.68 26.43-201.27 207.5-169.21 243.06-122.55 8.97 11.77 26.35 18.73 29.74 20.51l73.04-30.31c18.6-22.6 36.16-38.59 59.96-57.06 19.89-2.15 39 2.22 48.3 6.84 69.16 34.4 162.43 87.15 266.85 119.81l447.3 3.23 151.92-531.45 140.64-113.53 126.27 132.83 152.77 542.95 19.76 457.46-40.17 132.89c-8 37.51-42.01 139.01-42.01 139.01s-40.86 45.27-68.63 67.15l-79.9-79.01s-2.25-8.39-3.26-12.91c-27.7-123.91-62.91-161.7-62.91-161.7l-501.24-3.51c13.59 59.02 16.8 110.17-10.88 127.28l-151.59-7.13c-31.17-37.87-31.36-67.73-15.99-81.13l.94-49-69.94-.71c-.22 18.97-15.77 59.73-15.77 59.73l-152.51-5.41-192.24-9.42c-30.54-19.08-40.97-58.5-26.1-55.38 0 0-47.78-4.75-38.09-74.11 2.33-16.65-16.41-24.52-14.47-41.48" style="fill:#ffe501;fill-opacity:.49;stroke:#000;stroke-width:9.71px" transform="translate(-220.863 -970.815)scale(.61822)"/>
    <path d="m2746.82 1205.89 481.89.3-3.36 482.54h-480.69z" style="fill:none;stroke:#000;stroke-width:9.69px" transform="matrix(.61844 0 0 .61988 -467.266 178.14)"/>
</svg>
