<?xml version="1.0" encoding="UTF-8" standalone="no"?>
<!DOCTYPE svg PUBLIC "-//W3C//DTD SVG 1.1//EN" "http://www.w3.org/Graphics/SVG/1.1/DTD/svg11.dtd">
<svg width="100%" height="100%" viewBox="0 0 2787 917" version="1.1" xmlns="http://www.w3.org/2000/svg" xmlns:xlink="http://www.w3.org/1999/xlink" xml:space="preserve" xmlns:serif="http://www.serif.com/" style="fill-rule:evenodd;clip-rule:evenodd;stroke-linecap:round;stroke-linejoin:round;stroke-miterlimit:1.5;">
    <g transform="matrix(1,0,0,1,-130.33,-1068.42)">
        <g id="ezcal" transform="matrix(0.618217,0,0,0.618217,-18.6752,121.24)">
            <path d="M4743.12,708.709L4743.12,1047.82L2052.76,1057.33C2052.76,1057.33 2129.47,1202.38 1999.28,1254.31C1861.5,1309.26 1802.66,1186.19 1802.66,1186.19L1632.07,1288.66L1304.41,1155.99L807.077,1155.21L688.074,1665.75L541.076,1798.13L418.401,1665.3L265.631,1122.35L245.877,664.895L328.053,392.997C344.871,370.887 368.52,346.761 396.687,325.844C423.452,347.975 444.867,372.29 471.951,408.248L524.383,581.654L1000.74,593.778L1000.59,439.119L1172.91,435.632L1174.89,587.61L1385.01,583.919C1485.19,527.92 1593.2,531.17 1707.72,583.68C1817.41,563.333 1850.39,583.151 1836.15,713.565L4743.12,708.709Z" style="fill:rgb(255,229,1);fill-opacity:0.17;stroke:black;stroke-width:9.71px;"/>
        </g>
    </g>
</svg>
