<svg xmlns="http://www.w3.org/2000/svg" xml:space="preserve" style="fill-rule:evenodd;clip-rule:evenodd;stroke-linecap:round;stroke-linejoin:round;stroke-miterlimit:1.5" viewBox="0 0 2787 917">
    <path d="M4743.12 708.709v339.111l-2690.36 9.51s76.71 145.05-53.48 196.98c-137.78 54.95-196.62-68.12-196.62-68.12l-170.59 102.47-327.66-132.67-497.333-.78-119.003 510.54-146.998 132.38-122.675-132.83-152.77-542.95-19.754-457.455 82.176-271.898c16.818-22.11 40.467-46.236 68.634-67.153 26.765 22.131 48.18 46.446 75.264 82.404l52.432 173.406 476.357 12.124-.15-154.659 172.32-3.487 1.98 151.978 210.12-3.691c100.18-55.999 208.19-52.749 322.71-.239 109.69-20.347 142.67-.529 128.43 129.885z" style="fill:#ffe501;fill-opacity:.17;stroke:#000;stroke-width:9.71px" transform="translate(-149.005 -947.18)scale(.61822)"/>
    <path d="m2746.82 1205.89 481.89.3-3.36 482.54h-480.69z" style="fill:none;stroke:#000;stroke-width:9.69px" transform="matrix(.61844 0 0 .61988 -467.266 178.14)"/>
</svg>
